<svg width="23" height="43" viewBox="0 0 23 43" fill="none" xmlns="http://www.w3.org/2000/svg">
<path d="M8.97949 30.5586C9.01725 28.3307 9.31934 26.5371 9.88574 25.1777C10.4521 23.8184 11.6699 22.223 13.5391 20.3916C15.4082 18.5413 16.6071 17.2386 17.1357 16.4834C17.6833 15.7093 18.0986 14.8691 18.3818 13.9629C18.6839 13.0378 18.835 11.9899 18.835 10.8193C18.835 8.45931 18.2025 6.60905 16.9375 5.26855C15.6914 3.90918 13.945 3.22949 11.6982 3.22949C9.43262 3.22949 7.60124 3.88086 6.2041 5.18359C4.82585 6.46745 4.11784 8.21387 4.08008 10.4229H0.709961C0.747721 7.3265 1.79557 4.85319 3.85352 3.00293C5.91146 1.13379 8.52637 0.199219 11.6982 0.199219C14.9456 0.199219 17.5039 1.15267 19.373 3.05957C21.2611 4.94759 22.2051 7.5153 22.2051 10.7627C22.2051 12.8018 21.7425 14.7181 20.8174 16.5117C19.8923 18.2865 18.1364 20.3633 15.5498 22.7422C13.4163 24.5358 12.3496 27.1413 12.3496 30.5586H8.97949ZM8.52637 40.0176C8.52637 39.3757 8.72461 38.8376 9.12109 38.4033C9.53646 37.9502 10.1123 37.7236 10.8486 37.7236C11.5661 37.7236 12.1325 37.9502 12.5479 38.4033C12.9821 38.8376 13.1992 39.3757 13.1992 40.0176C13.1992 40.6406 12.9821 41.1693 12.5479 41.6035C12.1325 42.0189 11.5661 42.2266 10.8486 42.2266C10.1123 42.2266 9.53646 42.0189 9.12109 41.6035C8.72461 41.1693 8.52637 40.6406 8.52637 40.0176Z" fill="#0099DA"/>
</svg>
