<?xml version="1.0" standalone="no"?>
<!DOCTYPE svg PUBLIC "-//W3C//DTD SVG 20010904//EN"
 "http://www.w3.org/TR/2001/REC-SVG-20010904/DTD/svg10.dtd">
<svg version="1.0" xmlns="http://www.w3.org/2000/svg"
 width="44.000000pt" height="40.000000pt" viewBox="0 0 44.000000 40.000000"
 preserveAspectRatio="xMidYMid meet">
<metadata>
Created by potrace 1.15, written by Peter Selinger 2001-2017
</metadata>
<g transform="translate(0.000000,40.000000) scale(0.100000,-0.100000)"
fill="#000000" stroke="none">
<path d="M102 344 c-56 -31 -100 -59 -97 -64 3 -5 52 -33 110 -64 l104 -56
103 56 c57 31 106 59 111 63 8 8 -194 121 -215 121 -7 0 -59 -26 -116 -56z"/>
<path d="M17 219 c-9 -6 -15 -14 -12 -19 3 -4 52 -34 110 -64 l105 -57 43 24
c23 13 73 41 110 62 68 37 68 37 46 53 -21 15 -27 13 -113 -32 l-91 -48 -84
46 c-93 51 -89 49 -114 35z"/>
<path d="M17 139 c-9 -6 -15 -14 -12 -19 3 -5 52 -34 110 -65 l105 -56 42 24
c24 13 74 41 111 62 68 36 68 37 47 52 -21 15 -28 13 -114 -32 l-91 -47 -84
46 c-93 51 -89 49 -114 35z"/>
</g>
</svg>
