<?xml version="1.0" standalone="no"?>
<!DOCTYPE svg PUBLIC "-//W3C//DTD SVG 20010904//EN"
 "http://www.w3.org/TR/2001/REC-SVG-20010904/DTD/svg10.dtd">
<svg version="1.0" xmlns="http://www.w3.org/2000/svg"
 width="55pt" height="55pt" viewBox="0 0 52.000000 36.000000"
 preserveAspectRatio="xMidYMid meet">
<metadata>
Created by potrace 1.15, written by Peter Selinger 2001-2017
</metadata>
<g transform="translate(0.000000,36.000000) scale(0.100000,-0.100000)"
fill="#555555" stroke="none">
<path d="M147 354 c-4 -4 -7 -16 -7 -26 0 -16 -9 -18 -65 -18 -45 0 -67 -4
-71 -13 -2 -7 -3 -67 -2 -133 l3 -119 52 101 c29 56 59 104 68 108 9 3 77 6
152 6 134 0 134 0 131 23 -3 20 -9 22 -65 25 -55 3 -62 5 -65 25 -3 20 -10 22
-63 25 -34 2 -64 0 -68 -4z"/>
<path d="M112 228 c-13 -16 -102 -208 -102 -220 0 -4 91 -7 203 -6 l202 3 52
100 c29 55 52 108 53 118 0 16 -16 17 -199 17 -147 0 -201 -3 -209 -12z"/>
</g>
</svg>
