<?xml version="1.0" standalone="no"?>
<!DOCTYPE svg PUBLIC "-//W3C//DTD SVG 20010904//EN"
 "http://www.w3.org/TR/2001/REC-SVG-20010904/DTD/svg10.dtd">
<svg version="1.0" xmlns="http://www.w3.org/2000/svg"
 width="44.000000pt" height="44.000000pt" viewBox="0 0 44.000000 44.000000"
 preserveAspectRatio="xMidYMid meet">
<metadata>
Created by potrace 1.15, written by Peter Selinger 2001-2017
</metadata>
<g transform="translate(0.000000,44.000000) scale(0.100000,-0.100000)"
fill="#555555" stroke="none">
<path d="M172 411 c-19 -26 -26 -29 -57 -24 -49 8 -69 -10 -61 -59 5 -33 3
-40 -24 -60 -18 -13 -30 -31 -30 -44 0 -21 6 -29 45 -62 11 -10 14 -23 9 -48
-9 -48 9 -68 57 -60 37 6 41 4 77 -39 21 -24 56 -18 80 15 20 27 27 29 60 24
49 -8 67 12 59 61 -5 31 -2 38 24 57 39 29 39 69 0 97 -26 18 -28 26 -24 59 6
48 -13 67 -62 59 -30 -5 -37 -2 -55 24 -29 39 -69 39 -98 0z m97 -134 c25 -21
32 -56 16 -87 -27 -53 -110 -51 -129 1 -26 74 53 134 113 86z"/>
</g>
</svg>
