<?xml version="1.0" standalone="no"?>
<!DOCTYPE svg PUBLIC "-//W3C//DTD SVG 20010904//EN"
 "http://www.w3.org/TR/2001/REC-SVG-20010904/DTD/svg10.dtd">
<svg version="1.0" xmlns="http://www.w3.org/2000/svg"
 width="49.000000pt" height="49.000000pt" viewBox="0 0 49.000000 49.000000"
 preserveAspectRatio="xMidYMid meet">
<metadata>
Created by potrace 1.15, written by Peter Selinger 2001-2017
</metadata>
<g transform="translate(0.000000,49.000000) scale(0.100000,-0.100000)"
fill="#555555" stroke="none">
<path d="M219 413 c-74 -75 -80 -85 -148 -242 -39 -90 -70 -166 -67 -168 2 -2
77 28 167 68 156 69 168 76 242 148 42 42 76 80 74 86 -10 29 -44 13 -116 -57
-61 -60 -92 -82 -160 -112 -71 -31 -87 -35 -98 -23 -12 11 -8 27 23 98 30 68
52 99 112 160 70 72 86 106 57 116 -6 2 -45 -32 -86 -74z"/>
<path d="M267 372 c-64 -64 -83 -102 -53 -102 7 0 16 -9 19 -20 3 -11 12 -20
21 -20 9 0 16 -7 16 -15 0 -32 38 -12 103 53 69 70 84 102 45 102 -12 0 -18 3
-15 7 9 9 -13 34 -24 27 -5 -3 -9 4 -9 15 0 38 -34 23 -103 -47z"/>
</g>
</svg>
