<svg width="16" height="17" viewBox="0 0 16 17" fill="none" xmlns="http://www.w3.org/2000/svg">
<path d="M16 8.18846C16 10.291 15.1678 12.2676 13.6569 13.7543C12.1458 15.241 10.1369 16.0597 8 16.0597C6.50409 16.0597 5.07116 15.658 3.82756 14.9073L4.74475 14.0048C5.71069 14.5302 6.82037 14.8298 8 14.8298C11.722 14.8298 14.75 11.8505 14.75 8.18846C14.75 7.02782 14.4455 5.93599 13.9115 4.98563L14.8287 4.0832C15.5917 5.30675 16 6.71663 16 8.18846ZM0.910688 16.0333L0.0268125 15.1637L1.91831 13.3026C0.677094 11.8783 0 10.0846 0 8.18846C0 6.08598 0.832156 4.10934 2.34313 2.62262C3.85416 1.13596 5.86312 0.3172 8 0.3172C9.92716 0.3172 11.7502 0.983398 13.1978 2.20464L15.0893 0.343581L15.9732 1.21323L0.910688 16.0333ZM2.80791 12.4273L12.3082 3.07992C11.1385 2.12326 9.63641 1.54708 8 1.54708C4.27803 1.54708 1.25 4.52639 1.25 8.18846C1.25 9.79854 1.83556 11.2764 2.80791 12.4273Z" fill="#777777"/>
</svg>
